# xmcd CD database file
#
# Track frame offsets:
#	150
#	31420
#	53750
#	76861
#	99551
#	129469
#	157736
#	182411
#	206008
#	230871
#	257711
#	283547
#	306177
#	332436
#
# Disc length: 4732 seconds
#
# Revision: 1
# Processed by: cddbd v1.5.2PL0 Copyright (c) Steve Scherf et al.
# Submitted via: CDex 1.70beta2
#
DISCID=b4127a0e
DTITLE=Herriot-J1972 - Great-Small09
DYEAR=1972
DGENRE=Jungle
TTITLE0=GS 0901
TTITLE1=GS 0902
TTITLE2=GS 0903
TTITLE3=GS 0904
TTITLE4=GS 0905
TTITLE5=GS 0906
TTITLE6=GS 0907
TTITLE7=GS 0908
TTITLE8=GS 0909
TTITLE9=GS 0910
TTITLE10=GS 0911
TTITLE11=GS 0912
TTITLE12=GS 0913
TTITLE13=GS 0814
EXTD=All Creatures Great and Small 12 CDs\nby James Harriot read by ChristopherTimothy\nAudio Renassance - Jungle - Country YEAR: 1972
EXTT0=
EXTT1=
EXTT2=
EXTT3=
EXTT4=
EXTT5=
EXTT6=
EXTT7=
EXTT8=
EXTT9=
EXTT10=
EXTT11=
EXTT12=
EXTT13=
PLAYORDER=
